<?xml version="1.0" encoding="utf-8"?>
<!-- Generator: Adobe Illustrator 26.5.0, SVG Export Plug-In . SVG Version: 6.00 Build 0)  -->
<svg version="1.1" id="Layer_1" xmlns="http://www.w3.org/2000/svg" xmlns:xlink="http://www.w3.org/1999/xlink" x="0px" y="0px"
	 viewBox="0 0 720 576" style="enable-background:new 0 0 720 576;" xml:space="preserve">
<style type="text/css">
	.st0{clip-path:url(#SVGID_00000129927615535029405990000006585676938905680050_);fill:#221F1F;}
	.st1{fill:#221F1F;}
</style>
<g>
	<g>
		<defs>
			<rect id="SVGID_1_" x="26" y="155.5" width="720" height="146.9"/>
		</defs>
		<clipPath id="SVGID_00000040542928299174372830000003994563930271661707_">
			<use xlink:href="#SVGID_1_"  style="overflow:visible;"/>
		</clipPath>
		<path style="clip-path:url(#SVGID_00000040542928299174372830000003994563930271661707_);fill:#221F1F;" d="M584.4,200.5l-0.6,0
			c-20.8-7.1-41.6-14.3-62.7-20.1c-11-3.1-22.1-5.8-33.2-8c-2.8-0.6-5.6-1-8.4-1.6c-1.4-0.2-2.8-0.5-4.2-0.7l-4.2-0.6l-4.2-0.6
			c-1.4-0.2-2.8-0.3-4.2-0.5c-2.8-0.3-5.6-0.7-8.4-0.9l-4.2-0.4c-1.4-0.1-2.8-0.3-4.2-0.3c-2.8-0.1-5.6-0.3-8.4-0.4l-8.4-0.1
			c-2.8,0.1-5.6,0.2-8.4,0.3c-11.2,0.7-22.3,2.4-33.2,5.1c-10.9,2.7-21.7,6.2-32.3,10.6c-10.6,4.3-20.9,9.3-31.1,14.9
			c-2.5,1.4-5.1,2.7-7.6,4.2c-2.5,1.5-5.1,2.9-7.6,4.4c-2.5,1.5-5,3-7.5,4.5l-7.5,4.7c-5,3.1-10.2,6.2-15.5,8.9
			c-5.3,2.7-10.9,5.1-16.7,6.7l-2.2,0.6l-2.2,0.5c-1.4,0.4-2.9,0.6-4.3,0.9c-2.9,0.5-5.8,0.9-8.7,1.3c-5.8,0.7-11.5,1.1-17.2,1.5
			c-5.7,0.4-11.3,0.8-16.8,1.5l-16.9,2.4c-5.6,0.8-11.3,1.6-16.9,2.5c-5.6,0.9-11.2,1.9-16.7,3.1c-11.1,2.3-22.1,5.3-32.7,9.7
			c-10.6,4.3-20.7,10.2-29.3,18.5c-4.3,4.2-8.1,9-11.2,14.4c-3.1,5.4-5.5,11.4-7.1,17.7c1.2-6.4,3.2-12.6,6.1-18.4
			c2.9-5.7,6.5-11,10.7-15.6c4.2-4.6,8.9-8.5,13.9-11.9c5-3.4,10.2-6.3,15.5-8.9c5.3-2.5,10.8-4.6,16.3-6.5
			c5.5-1.9,11.1-3.5,16.7-4.9c5.6-1.4,11.2-2.6,16.9-3.7c5.6-1.1,11.3-2.1,16.9-3.1l16.9-3c5.7-0.9,11.5-1.5,17.2-2
			c5.7-0.5,11.3-1,16.9-1.8c2.8-0.4,5.5-0.8,8.3-1.3c1.4-0.3,2.7-0.5,4.1-0.9l2-0.5l2-0.6c2.6-0.8,5.2-1.7,7.8-2.8
			c2.6-1.1,5.1-2.3,7.6-3.6c5-2.6,10-5.7,14.9-8.8l7.5-4.7c2.5-1.6,5.1-3.1,7.6-4.6c2.5-1.6,5.1-3,7.7-4.5c2.6-1.5,5.2-2.9,7.8-4.3
			c10.4-5.6,21-10.7,31.9-15.1c10.9-4.3,22-8,33.4-10.5c11.3-2.6,22.9-4.2,34.4-4.6c2.9-0.1,5.8-0.1,8.7-0.2l8.7,0.3
			c2.9,0.2,5.7,0.4,8.6,0.7c1.4,0.1,2.9,0.3,4.3,0.4l4.3,0.5c2.9,0.3,5.7,0.8,8.5,1.2c1.4,0.2,2.8,0.4,4.3,0.7l4.2,0.8l4.2,0.8
			c1.4,0.3,2.8,0.6,4.2,0.9c2.8,0.6,5.6,1.2,8.4,1.9c11.2,2.7,22.3,5.9,33.3,9.6C543.3,183.1,564,191.5,584.4,200.5z"/>
		<path style="clip-path:url(#SVGID_00000040542928299174372830000003994563930271661707_);fill:#221F1F;" d="M182.8,271.9l86.1-23
			c8.6-2.3,17.6-3.7,26.8-4.3l363.1-21.9L182.8,271.9z"/>
	</g>
	<g>
		<path class="st1" d="M68.4,269.3c16.6-35.7,57.2-52.9,94.5-41.9c-0.9-0.4-1.7-0.9-2.6-1.3c-39.1-18.2-85.5-1.3-103.7,37.7
			c-18.1,39-1.1,85.4,38,103.5c0.9,0.4,1.8,0.8,2.6,1.1C64.8,347.1,51.8,305,68.4,269.3z"/>
	</g>
	<g>
		<path class="st1" d="M448.3,312.5c0,2.2-0.3,4.1-0.8,5.9c-0.5,1.7-1.3,3.3-2.2,4.6s-2,2.5-3.2,3.4c-1.2,0.9-2.5,1.7-3.8,2.3
			c-1.3,0.6-2.6,1-4,1.3c-1.3,0.3-2.6,0.4-3.8,0.4h-42.5v-11h42.5c2.1,0,3.8-0.6,4.9-1.9c1.2-1.2,1.8-2.9,1.8-5c0-1-0.2-1.9-0.5-2.8
			s-0.8-1.6-1.3-2.2c-0.6-0.6-1.3-1.1-2.1-1.4c-0.8-0.3-1.8-0.5-2.8-0.5h-25.3c-1.8,0-3.7-0.3-5.8-1c-2.1-0.6-4-1.7-5.7-3.1
			c-1.8-1.4-3.2-3.3-4.4-5.5c-1.2-2.3-1.8-5.1-1.8-8.4c0-3.3,0.6-6.1,1.8-8.4c1.2-2.3,2.6-4.1,4.4-5.5c1.8-1.4,3.7-2.5,5.7-3.1
			c2.1-0.6,4-1,5.8-1h37.5v11h-37.5c-2.1,0-3.7,0.6-4.9,1.9s-1.8,3-1.8,5c0,2.1,0.6,3.8,1.8,5c1.2,1.2,2.8,1.8,4.9,1.8h25.3h0.1
			c1.2,0,2.4,0.2,3.8,0.5c1.3,0.3,2.6,0.8,4,1.4c1.3,0.6,2.6,1.4,3.7,2.3c1.2,0.9,2.2,2.1,3.2,3.4c0.9,1.3,1.6,2.9,2.2,4.6
			C448.1,308.4,448.3,310.3,448.3,312.5z"/>
		<path class="st1" d="M518.1,305c0,3.7-0.6,7.1-1.9,10.2c-1.3,3.1-3.1,5.8-5.3,8c-2.3,2.2-4.9,4-8,5.3c-3.1,1.3-6.5,1.9-10.1,1.9
			h-29.7c-0.8,0-1.5-0.1-2.2-0.4c-0.7-0.3-1.3-0.7-1.8-1.2c-0.5-0.5-0.9-1.1-1.2-1.8c-0.3-0.7-0.4-1.4-0.4-2.2v-49.6
			c0-0.8,0.1-1.5,0.4-2.2c0.3-0.7,0.7-1.3,1.2-1.8c0.5-0.5,1.1-0.9,1.8-1.2c0.7-0.3,1.4-0.4,2.2-0.4h29.7c3.6,0,7,0.6,10.1,1.9
			c3.1,1.3,5.8,3,8,5.3c2.3,2.2,4,4.9,5.3,8c1.3,3.1,1.9,6.5,1.9,10.2V305z M507.1,295.1c0-2.1-0.3-4.1-1-5.9
			c-0.7-1.8-1.7-3.3-2.9-4.6c-1.3-1.3-2.8-2.2-4.6-2.9c-1.8-0.7-3.7-1-5.9-1h-24.3v38.7h24.3c2.1,0,4.1-0.3,5.9-1
			c1.8-0.7,3.3-1.7,4.6-2.9c1.3-1.3,2.3-2.8,2.9-4.5c0.7-1.8,1-3.7,1-5.9V295.1z"/>
		<path class="st1" d="M588.2,269.7l-28.7,58.6c-0.5,0.9-1.1,1.6-2,2.2c-0.9,0.5-1.9,0.8-2.9,0.8c-1,0-2-0.3-2.9-0.8
			c-0.9-0.6-1.6-1.3-2.1-2.2l-28.7-58.6h12.3l21.3,43.7l21.4-43.7H588.2z"/>
	</g>
	<g>
		<path class="st1" d="M106.6,368.3v-21.9h14.2v4.1h-9.1v4.5h8.6v4.1h-8.6v5.1h9.4v4.2H106.6z"/>
		<path class="st1" d="M130.9,368.7c-4.3,0-8.2-2.9-8.2-8.1c0-5.2,4-8.1,8.3-8.1c4,0,5.8,1.6,5.8,1.6l-1.1,3.8
			c-0.4-0.3-1.8-1.4-4-1.4c-2.2,0-3.9,1.5-3.9,4c0,2.5,1.6,4,3.9,4c2.4,0,4-1.5,4-1.5l1.2,3.8C136.7,366.9,135,368.7,130.9,368.7z"
			/>
		<path class="st1" d="M139,368.3v-21.9h5.1v21.9H139z"/>
		<path class="st1" d="M150.1,350.9c-1.7,0-2.9-1-2.9-2.6c0-1.6,1.2-2.6,2.9-2.6c1.7,0,2.9,1.1,2.9,2.6
			C153,349.8,151.8,350.9,150.1,350.9z M147.6,368.3v-15.6h5.1v15.6H147.6z"/>
		<path class="st1" d="M166.1,368.7c-2.3,0-4-0.9-4.9-2.3v7.7h-5.1v-21.4h4.8l0,2h0.1c1.1-1.4,2.8-2.3,5.2-2.3
			c4.5,0,7.4,3.5,7.4,8.1S170.7,368.7,166.1,368.7z M164.7,356.4c-2.2,0-3.6,1.6-3.6,4.1c0,2.4,1.5,4.1,3.6,4.1
			c2.2,0,3.7-1.6,3.7-4.1C168.4,358.1,166.9,356.4,164.7,356.4z"/>
		<path class="st1" d="M181.3,368.7c-2.3,0-4.8-0.7-6.6-2.4l1.9-3c1.3,1.1,3.4,1.9,4.6,1.9c1.3,0,2.2-0.3,2.2-1.3s-2.3-1.5-2.9-1.7
			c-2.6-0.7-4.9-1.6-4.9-4.8c0-3,2.7-4.9,5.9-4.9c3.3,0,5.1,1.2,6,1.9l-1.6,3c-0.9-0.7-2.7-1.5-3.9-1.5c-1.2,0-1.9,0.3-1.9,1.1
			s1.2,1.2,2.3,1.5c2.7,0.8,5.5,1.6,5.5,5.1C187.9,367.3,184.5,368.7,181.3,368.7z"/>
		<path class="st1" d="M205.5,361.7h-11.1c0.2,2.3,1.9,3.3,4,3.3c2,0,3.8-0.9,4.7-1.5l2,2.6c-0.5,0.4-2.6,2.5-7.4,2.5
			c-4.8,0-8.3-3-8.3-8.1c0-5.2,3.8-8.1,8.4-8.1s7.8,3.1,7.8,7.6C205.6,360.8,205.5,361.7,205.5,361.7z M197.7,355.7
			c-2.1,0-3.2,1.6-3.2,3.1h6.4C200.9,357.4,199.8,355.7,197.7,355.7z"/>
		<path class="st1" d="M220.8,368.7c-3.2,0-6-1.6-7.8-3.3l2.5-3.7c1.6,1.6,4,2.8,5.7,2.8c1.6,0,2.9-0.8,2.9-2.3
			c0-1.5-1.6-2.1-2.6-2.4c-1-0.3-2.6-0.9-3.3-1.2c-0.5-0.3-1.6-0.7-2.6-1.6c-1-0.9-1.7-2.2-1.7-4.2c0-2.1,1-3.7,2.3-4.8
			c1.2-1,3.2-1.7,5.8-1.7s5.5,1.2,6.9,2.7l-2.2,3.6c-1.3-1.3-3.2-2.2-4.9-2.2c-1.6,0-2.9,0.6-2.9,2s1.2,1.8,2.2,2.2
			c1,0.4,2.6,1,3.3,1.2c2.8,1,4.8,2.8,4.8,6C229.3,366.4,225,368.7,220.8,368.7z"/>
		<path class="st1" d="M239.5,368.7c-4.9,0-8.7-3.1-8.7-8.1c0-5,3.7-8.1,8.7-8.1c4.9,0,8.7,3.1,8.7,8.1
			C248.1,365.6,244.4,368.7,239.5,368.7z M239.5,356.4c-2.3,0-3.6,1.7-3.6,4.1s1.3,4.1,3.6,4.1c2.2,0,3.6-1.7,3.6-4.1
			S241.7,356.4,239.5,356.4z"/>
		<path class="st1" d="M266.7,356.6v5.6c0,1.4,0.1,2.3,1.6,2.3c0.8,0,1.5-0.3,1.5-0.3l0.3,4c-0.4,0.1-1.8,0.5-3.6,0.5
			c-4.1,0-4.9-2.5-4.9-6.1v-6.1h-5.3v11.8h-5.1v-11.8h-2v-3.8h2v-0.9c0-3.7,1.8-5.8,5.6-5.8c2,0,3.5,0.4,3.5,0.4l-0.3,3.5
			c0,0-1-0.3-1.9-0.3c-1.5,0-1.9,0.9-1.9,2v1h5.3v-4.2h5.1v4.2h3.5v3.8H266.7z"/>
		<path class="st1" d="M291.4,368.3h-4.8l-3-9.6l-3.1,9.6h-4.8l-5.1-15.6h5.1l2.8,10l3-10h4.2l3,10l2.8-10h5.1L291.4,368.3z"/>
		<path class="st1" d="M307.6,368.3l-0.1-1.6c-0.7,0.7-1.9,2-4.5,2c-2.8,0-5.7-1.5-5.7-5c0-3.5,3.2-4.7,6.1-4.8l3.9-0.2v-0.3
			c0-1.6-1.2-2.5-3.2-2.5c-2,0-4,0.9-4.8,1.4l-1.3-3.3c1.3-0.7,3.8-1.6,6.7-1.6c4.9,0,7.7,2,7.7,7.1v8.8H307.6z M304.9,361.6
			c-1.6,0.1-2.5,0.7-2.5,1.9c0,1.2,1,1.9,2.4,1.9c1.4,0,2.3-0.9,2.6-1.4v-2.6L304.9,361.6z"/>
		<path class="st1" d="M325.9,357.4h-0.2c-0.3-0.2-1-0.4-1.8-0.4c-2.5,0-3.1,2.3-3.1,4.4v6.9h-5.1v-15.6h5.1l0,2.2h0.1
			c0.9-1.7,2.2-2.5,3.9-2.5c1,0,1.6,0.3,1.6,0.3L325.9,357.4z"/>
		<path class="st1" d="M343,361.7h-11.1c0.2,2.3,1.9,3.3,4,3.3c2,0,3.8-0.9,4.7-1.5l2,2.6c-0.5,0.4-2.6,2.5-7.4,2.5
			c-4.8,0-8.3-3-8.3-8.1c0-5.2,3.8-8.1,8.4-8.1s7.8,3.1,7.8,7.6C343.1,360.8,343,361.7,343,361.7z M335.1,355.7
			c-2.1,0-3.2,1.6-3.2,3.1h6.4C338.3,357.4,337.3,355.7,335.1,355.7z"/>
		<path class="st1" d="M359.4,368.3H352v-21.9h7.4c6.9,0,12,3.6,12,10.9C371.4,364.7,366.3,368.3,359.4,368.3z M359.7,350.7h-2.6
			V364h2.6c4.1,0,6.5-2.5,6.5-6.6C366.2,353.3,363.8,350.7,359.7,350.7z"/>
		<path class="st1" d="M389.2,361.7h-11.1c0.2,2.3,1.9,3.3,4,3.3c2,0,3.8-0.9,4.7-1.5l2,2.6c-0.5,0.4-2.6,2.5-7.4,2.5
			c-4.8,0-8.3-3-8.3-8.1c0-5.2,3.8-8.1,8.4-8.1c4.6,0,7.8,3.1,7.8,7.6C389.3,360.8,389.2,361.7,389.2,361.7z M381.4,355.7
			c-2.1,0-3.2,1.6-3.2,3.1h6.4C384.5,357.4,383.5,355.7,381.4,355.7z"/>
		<path class="st1" d="M399.3,349.7c-1.7,0-1.9,1.2-1.9,2.4v0.6h3.4v3.8h-3.4v11.8h-5.1v-11.8h-2v-3.8h2v-0.9c0-3.8,1.8-5.8,5.7-5.8
			c1.7,0,3.3,0.4,3.3,0.4l-0.3,3.5C400.5,349.8,399.9,349.7,399.3,349.7z M404.9,350.9c-1.7,0-2.9-1-2.9-2.6c0-1.6,1.2-2.6,2.9-2.6
			c1.7,0,2.9,1.1,2.9,2.6C407.8,349.8,406.6,350.9,404.9,350.9z M402.4,368.3v-15.6h5.1v15.6H402.4z"/>
		<path class="st1" d="M421.1,368.3v-8.1c0-2.1-0.3-3.6-2.4-3.6c-2.2,0-2.8,1.8-2.8,4v7.7h-5.1v-15.6h5.1l0,2.3h0.1
			c0.9-1.4,2.3-2.5,4.5-2.5c4.5,0,5.7,2.9,5.7,6.7v9.2H421.1z"/>
		<path class="st1" d="M444.8,361.7h-11.1c0.2,2.3,1.9,3.3,4,3.3c2,0,3.8-0.9,4.7-1.5l2,2.6c-0.5,0.4-2.6,2.5-7.4,2.5
			c-4.8,0-8.3-3-8.3-8.1c0-5.2,3.8-8.1,8.4-8.1c4.6,0,7.8,3.1,7.8,7.6C444.8,360.8,444.8,361.7,444.8,361.7z M436.9,355.7
			c-2.1,0-3.2,1.6-3.2,3.1h6.4C440.1,357.4,439,355.7,436.9,355.7z"/>
		<path class="st1" d="M459,368.3l0-2.1l-0.1,0c-1.2,1.6-3,2.4-5.1,2.4c-4.5,0-7.4-3.6-7.4-8.1s2.9-8.1,7.4-8.1
			c2.9,0,4.4,1.4,4.9,2.2v-8.1h5.1v21.9H459z M455.3,356.4c-2.2,0-3.7,1.6-3.7,4.1c0,2.4,1.5,4.1,3.7,4.1s3.6-1.6,3.6-4.1
			C458.9,358.1,457.4,356.4,455.3,356.4z"/>
		<path class="st1" d="M484.7,368.3h-4.9l-8.1-21.9h5.5l5.1,15.1l5.1-15.1h5.4L484.7,368.3z"/>
		<path class="st1" d="M509.2,361.7h-11.1c0.2,2.3,1.9,3.3,4,3.3c2,0,3.8-0.9,4.7-1.5l2,2.6c-0.5,0.4-2.6,2.5-7.4,2.5
			c-4.8,0-8.3-3-8.3-8.1c0-5.2,3.8-8.1,8.4-8.1s7.8,3.1,7.8,7.6C509.3,360.8,509.2,361.7,509.2,361.7z M501.3,355.7
			c-2.1,0-3.2,1.6-3.2,3.1h6.4C504.5,357.4,503.5,355.7,501.3,355.7z"/>
		<path class="st1" d="M522,368.3v-8.2c0-1.9-0.3-3.6-2.4-3.6s-2.8,1.8-2.8,4.1v7.7h-5.1v-21.9h5.1v5.2c0,1.6,0,3.3,0,3.3
			c0.8-1.4,2.3-2.5,4.6-2.5c4.5,0,5.7,2.9,5.7,6.7v9.2H522z"/>
		<path class="st1" d="M532.9,350.9c-1.7,0-2.9-1-2.9-2.6c0-1.6,1.2-2.6,2.9-2.6c1.7,0,2.9,1.1,2.9,2.6
			C535.8,349.8,534.6,350.9,532.9,350.9z M530.4,368.3v-15.6h5.1v15.6H530.4z"/>
		<path class="st1" d="M546.2,368.7c-4.3,0-8.2-2.9-8.2-8.1c0-5.2,4-8.1,8.3-8.1c4,0,5.8,1.6,5.8,1.6l-1.1,3.8
			c-0.4-0.3-1.8-1.4-4-1.4c-2.2,0-3.9,1.5-3.9,4c0,2.5,1.6,4,3.9,4s4-1.5,4-1.5l1.2,3.8C552,366.9,550.3,368.7,546.2,368.7z"/>
		<path class="st1" d="M554.3,368.3v-21.9h5.1v21.9H554.3z"/>
		<path class="st1" d="M578.1,361.7h-11.1c0.2,2.3,1.9,3.3,4,3.3c2,0,3.8-0.9,4.7-1.5l2,2.6c-0.5,0.4-2.6,2.5-7.4,2.5
			c-4.8,0-8.3-3-8.3-8.1c0-5.2,3.8-8.1,8.4-8.1s7.8,3.1,7.8,7.6C578.1,360.8,578.1,361.7,578.1,361.7z M570.2,355.7
			c-2.1,0-3.2,1.6-3.2,3.1h6.4C573.4,357.4,572.3,355.7,570.2,355.7z"/>
	</g>
</g>
<g>
	<path class="st1" d="M645.3,210.4h-2.8v5.7h-1.3v-5.7h-2.8v-1.3h6.9V210.4z"/>
	<path class="st1" d="M654.3,216.1h-1.3v-4.2l-2.3,4c-0.1,0.1-0.1,0.2-0.2,0.2c-0.1,0.1-0.2,0.1-0.3,0.1c-0.1,0-0.2,0-0.3-0.1
		c-0.1-0.1-0.2-0.1-0.2-0.2l-2.3-4v4.2h-1.3v-6.5c0-0.1,0-0.3,0.1-0.4c0.1-0.1,0.2-0.2,0.3-0.2c0.1,0,0.1,0,0.2,0s0.1,0,0.2,0
		c0.1,0,0.1,0.1,0.2,0.1s0.1,0.1,0.1,0.2l2.9,5l2.9-5c0.1-0.1,0.2-0.2,0.3-0.3c0.1-0.1,0.3-0.1,0.4,0c0.1,0,0.2,0.1,0.3,0.2
		s0.1,0.2,0.1,0.4V216.1z"/>
</g>
</svg>
