<?xml version="1.0" encoding="UTF-8" standalone="no"?>
<!-- Created with Inkscape (http://www.inkscape.org/) -->

<svg
   version="1.1"
   id="svg2"
   xml:space="preserve"
   width="1769.5199"
   height="766.37396"
   viewBox="0 0 1769.5199 766.37395"
   sodipodi:docname="eclipsesdvblueprint_white.svg"
   inkscape:version="1.1.1 (c3084ef, 2021-09-22)"
   xmlns:inkscape="http://www.inkscape.org/namespaces/inkscape"
   xmlns:sodipodi="http://sodipodi.sourceforge.net/DTD/sodipodi-0.dtd"
   xmlns="http://www.w3.org/2000/svg"
   xmlns:svg="http://www.w3.org/2000/svg"><sodipodi:namedview
     id="namedview32"
     pagecolor="#505050"
     bordercolor="#eeeeee"
     borderopacity="1"
     inkscape:pageshadow="0"
     inkscape:pageopacity="0"
     inkscape:pagecheckerboard="0"
     showgrid="false"
     fit-margin-top="0"
     fit-margin-left="0"
     fit-margin-right="0"
     fit-margin-bottom="0"
     inkscape:zoom="0.32737499"
     inkscape:cx="891.94352"
     inkscape:cy="421.53495"
     inkscape:window-width="2209"
     inkscape:window-height="1408"
     inkscape:window-x="243"
     inkscape:window-y="25"
     inkscape:window-maximized="0"
     inkscape:current-layer="g8" /><defs
     id="defs6"><clipPath
       clipPathUnits="userSpaceOnUse"
       id="clipPath18"><path
         d="M 0,2000 H 2000 V 0 H 0 Z"
         id="path16" /></clipPath></defs><g
     id="g8"
     transform="matrix(1.3333333,0,0,-1.3333333,-448.57346,1716.5206)"><g
       id="g12"
       inkscape:export-filename="/Users/nacidai/dev/git/eclipse-sdv-blueprints/blueprints-website/static/logos/eclipsesdvblueprint_white.svg"
       inkscape:export-xdpi="96"
       inkscape:export-ydpi="96"><g
         id="g14"
         clip-path="url(#clipPath18)"><g
           id="g20"
           transform="translate(880.9702,1057.0298)"><path
             d="m 0,0 h 11.41 l -24.78,-63.66 h -9.76 L -48.52,0 h 11.54 l 18.689,-48.7 z m -84,-53.93 c 6.42,0 11.68,2.07 15.76,6.23 4.09,4.16 6.14,9.45 6.14,15.88 0,6.41 -2.05,11.7 -6.14,15.85 -4.08,4.14 -9.34,6.21 -15.76,6.21 H -95.67 V -53.93 Z M -83.68,0 c 4.6,0 8.92,-0.8 12.94,-2.39 4,-1.59 7.42,-3.79 10.24,-6.6 2.84,-2.8 5.05,-6.16 6.67,-10.12 1.61,-3.95 2.43,-8.2 2.43,-12.71 0,-6.08 -1.4,-11.53 -4.16,-16.38 -2.77,-4.87 -6.6,-8.66 -11.53,-11.37 -4.91,-2.729 -10.44,-4.09 -16.59,-4.09 h -22.48 V 0 Z m -57.68,-64.629 c -7.23,0 -13.03,1.879 -17.43,5.649 -4.39,3.77 -6.59,8.9 -6.59,15.34 h 10.61 c 0,-3.43 1.24,-6.12 3.74,-8.08 2.52,-1.95 5.7,-2.92 9.58,-2.92 3.51,0 6.5,0.85 8.92,2.57 2.43,1.71 3.64,3.99 3.64,6.841 0,0.619 -0.06,1.189 -0.18,1.759 -0.12,0.54 -0.32,1.04 -0.62,1.531 -0.29,0.469 -0.58,0.889 -0.84,1.25 -0.27,0.379 -0.69,0.739 -1.27,1.089 -0.57,0.35 -1.04,0.65 -1.42,0.911 -0.37,0.259 -0.96,0.52 -1.75,0.799 -0.8,0.28 -1.42,0.5 -1.86,0.67 -0.45,0.15 -1.15,0.37 -2.12,0.62 -0.96,0.25 -1.67,0.43 -2.12,0.53 -0.47,0.111 -1.23,0.29 -2.29,0.55 -5.42,1.3 -9.32,2.53 -11.73,3.7 -5.38,2.591 -8.39,6.57 -9.05,11.94 -0.12,0.82 -0.18,1.68 -0.18,2.58 0,5.71 2,10.16 6.02,13.39 4.01,3.23 9.44,4.85 16.27,4.85 6.87,0 12.25,-1.76 16.14,-5.24 3.9,-3.49 5.84,-8.26 5.84,-14.29 h -10.31 c 0,3.07 -1.11,5.47 -3.35,7.211 -2.23,1.73 -5.08,2.589 -8.55,2.589 -3.31,0 -6.07,-0.71 -8.27,-2.149 -2.21,-1.44 -3.32,-3.411 -3.32,-5.931 0,-0.95 0.17,-1.799 0.47,-2.569 0.32,-0.781 0.84,-1.46 1.56,-2.061 0.73,-0.609 1.44,-1.12 2.13,-1.53 0.69,-0.429 1.69,-0.84 2.98,-1.25 1.29,-0.42 2.36,-0.74 3.24,-0.98 0.87,-0.23 2.11,-0.55 3.7,-0.929 5.49,-1.361 9.43,-2.621 11.85,-3.77 5.55,-2.701 8.72,-6.741 9.5,-12.121 0.15,-0.99 0.23,-2 0.23,-3.06 0,-4.12 -1.04,-7.67 -3.14,-10.66 -2.07,-2.999 -4.85,-5.209 -8.32,-6.659 -3.45,-1.46 -7.36,-2.17 -11.71,-2.17 m -79.44,42.169 c -3.76,0 -6.95,-1.07 -9.57,-3.2 -2.64,-2.13 -4.38,-5.03 -5.2,-8.69 h 29.7 c -0.93,3.72 -2.7,6.63 -5.35,8.74 -2.65,2.09 -5.85,3.15 -9.58,3.15 m 25.05,-16.79 c 0,-0.94 -0.07,-2.03 -0.22,-3.27 h -39.88 c 0.63,-3.97 2.29,-7.11 4.98,-9.43 2.69,-2.3 6.06,-3.45 10.07,-3.45 2.91,0 5.5,0.63 7.81,1.91 2.28,1.27 4.09,3.03 5.39,5.29 h 10.66 c -1.96,-5.19 -5.05,-9.259 -9.29,-12.219 -4.23,-2.951 -9.08,-4.441 -14.57,-4.441 -7.15,0 -13.15,2.46 -17.97,7.401 -4.83,4.919 -7.24,11.039 -7.24,18.349 0,4.82 1.1,9.21 3.28,13.14 2.2,3.94 5.22,7.03 9.07,9.26 3.85,2.24 8.13,3.35 12.86,3.35 4.9,0 9.26,-1.16 13.11,-3.49 3.85,-2.32 6.79,-5.44 8.85,-9.37 2.06,-3.92 3.09,-8.26 3.09,-13.03 m -62.95,-21.32 c -3.64,-2.86 -8.46,-4.29 -14.43,-4.29 -5.98,0 -10.78,1.521 -14.41,4.58 -3.62,3.04 -5.51,7.11 -5.65,12.2 h 9.85 c 0.12,-2.52 1.15,-4.46 3.09,-5.84 1.93,-1.38 4.43,-2.06 7.47,-2.06 2.79,0 5.08,0.56 6.88,1.71 1.81,1.14 2.71,2.7 2.71,4.69 0,0.88 -0.21,1.68 -0.63,2.39 -0.44,0.711 -0.96,1.28 -1.56,1.711 -0.61,0.429 -1.47,0.819 -2.58,1.169 -1.11,0.37 -2.11,0.62 -2.97,0.8 -0.88,0.19 -2.05,0.4 -3.53,0.67 -1.51,0.27 -2.71,0.49 -3.59,0.67 -0.89,0.18 -2.05,0.47 -3.47,0.86 -1.43,0.39 -2.56,0.82 -3.44,1.27 -0.88,0.44 -1.83,1.03 -2.86,1.78 -1.04,0.74 -1.85,1.56 -2.43,2.45 -0.58,0.91 -1.06,2.02 -1.45,3.32 -0.41,1.3 -0.61,2.73 -0.61,4.3 0,4.41 1.76,7.99 5.26,10.72 3.51,2.74 8.11,4.11 13.79,4.11 5.68,0 10.24,-1.43 13.7,-4.28 3.44,-2.86 5.21,-6.67 5.3,-11.44 h -9.55 c -0.09,2.32 -0.97,4.08 -2.66,5.3 -1.69,1.23 -4.02,1.85 -7.02,1.85 -2.77,0 -4.98,-0.54 -6.61,-1.62 -1.63,-1.08 -2.44,-2.52 -2.44,-4.33 0,-0.7 0.13,-1.34 0.35,-1.88 0.25,-0.55 0.66,-1.03 1.23,-1.44 0.58,-0.43 1.12,-0.76 1.64,-1.03 0.51,-0.26 1.29,-0.52 2.3,-0.76 1.03,-0.23 1.87,-0.41 2.52,-0.55 0.65,-0.13 1.6,-0.3 2.87,-0.51 4.81,-0.8 8.25,-1.64 10.35,-2.53 5.04,-2.15 7.7,-5.96 7.99,-11.41 0.03,-0.35 0.05,-0.74 0.05,-1.15 0,-4.76 -1.82,-8.58 -5.46,-11.43 m -79.32,9.96 c 3.06,-3.08 6.9,-4.61 11.52,-4.61 4.62,0 8.44,1.53 11.46,4.59 3.01,3.06 4.53,6.901 4.53,11.52 0,4.62 -1.52,8.45 -4.53,11.52 -3.02,3.07 -6.84,4.6 -11.46,4.6 -4.62,0 -8.46,-1.54 -11.52,-4.62 -3.06,-3.08 -4.59,-6.91 -4.59,-11.5 0,-4.59 1.53,-8.41 4.59,-11.5 m 12.32,37.25 c 4.82,0 9.17,-1.11 13.05,-3.32 3.88,-2.23 6.91,-5.31 9.08,-9.25 2.18,-3.94 3.27,-8.33 3.27,-13.18 0,-7.37 -2.41,-13.5 -7.23,-18.43 -4.8,-4.91 -10.86,-7.36 -18.17,-7.36 -6.3,0 -11.76,1.981 -16.33,5.95 v -22.29 h -10.08 v 66.68 h 6.79 l 1.91,-6.03 c 2.24,2.3 4.89,4.09 7.92,5.35 3.03,1.25 6.29,1.88 9.79,1.88 m -50.82,-1.2 h 10.08 v -49.1 h -10.08 z m -0.18,18.03 h 10.42 V -6.97 h -10.42 z m -24.23,-0.45 h 10.07 v -66.68 h -10.07 z m -34.41,-67.88 c -4.8,0 -9.16,1.12 -13.1,3.38 -3.93,2.24 -7.02,5.34 -9.26,9.28 -2.23,3.94 -3.35,8.32 -3.35,13.13 0,4.82 1.12,9.2 3.35,13.13 2.24,3.92 5.33,7 9.26,9.23 3.94,2.24 8.32,3.35 13.15,3.35 6.03,0 11.26,-1.7 15.67,-5.11 4.41,-3.4 7.29,-7.93 8.65,-13.58 h -9.98 c -1.31,2.82 -3.23,5.03 -5.78,6.64 -2.54,1.6 -5.41,2.42 -8.61,2.42 -4.41,0 -8.09,-1.54 -11.03,-4.62 -2.95,-3.08 -4.42,-6.9 -4.42,-11.46 0,-4.56 1.48,-8.39 4.44,-11.5 2.95,-3.1 6.63,-4.65 11.01,-4.65 3.22,0 6.08,0.82 8.6,2.49 2.5,1.65 4.41,3.97 5.74,6.97 h 10.17 c -1.36,-5.75 -4.27,-10.37 -8.74,-13.86 -4.48,-3.5 -9.73,-5.24 -15.77,-5.24 m -60.37,11.05 h 27.47 v -9.85 H -506.2 V 0 h 37 v -9.8 h -26.51 v -16.61 h 24.14 v -9.6 h -24.14 z"
             style="fill:#ffffff;fill-opacity:1;fill-rule:nonzero;stroke:none"
             id="path22" /></g><g
           id="g24"
           transform="translate(449.6001,800.8105)"><path
             d="m 0,0 c 6.51,0 11.79,1.939 15.8,5.81 3.96,3.87 5.98,8.849 5.98,14.96 0,5.99 -2.02,10.959 -5.98,14.839 -4.01,3.821 -9.29,5.76 -15.8,5.76 H -35.48 V 0 Z m 12.8,80.149 c 3.75,3.651 5.64,8.401 5.64,14.21 0,5.861 -1.89,10.611 -5.68,14.22 -3.78,3.61 -8.76,5.41 -14.96,5.41 H -35.48 V 74.64 H -2.2 c 6.25,0 11.26,1.849 15,5.509 M 36.35,60.739 C 44.49,56.51 50.83,50.569 55.32,42.869 59.76,35.17 62.01,26.449 62.01,16.64 62.01,1.85 56.29,-10.74 44.93,-21.131 33.53,-31.561 19.8,-36.75 3.74,-36.75 h -78.57 v 184.899 h 76.5 c 15.89,0 29.13,-4.54 39.7,-13.599 10.56,-9.071 15.84,-20.38 15.84,-33.981 0,-7.92 -1.85,-15.399 -5.5,-22.45 C 48.02,71.08 42.87,65.27 36.35,60.739"
             style="fill:#ffffff;fill-opacity:1;fill-rule:nonzero;stroke:none"
             id="path26" /></g><path
           d="m 526.95,958.11 h 38.56 V 764.06 h -38.56 z"
           style="fill:#ffffff;fill-opacity:1;fill-rule:nonzero;stroke:none"
           id="path28" /><g
           id="g30"
           transform="translate(661.0801,760.0605)"><path
             d="M 0,0 C -20.11,0 -36.31,5.89 -48.68,17.689 -61,29.439 -67.16,44.97 -67.16,64.209 V 146.6 h 38.55 V 68.609 c 0,-10.17 2.56,-18.089 7.62,-23.809 5.06,-5.721 12.06,-8.58 20.99,-8.58 8.94,0 15.94,2.899 20.91,8.67 4.97,5.759 7.48,13.639 7.48,23.719 V 146.6 H 66.94 V 64.209 C 66.94,44.97 60.83,29.439 48.64,17.689 36.44,5.89 20.2,0 0,0"
             style="fill:#ffffff;fill-opacity:1;fill-rule:evenodd;stroke:none"
             id="path32" /></g><g
           id="g34"
           transform="translate(818.6699,877.79)"><path
             d="m 0,0 c -8.53,0 -15.75,-2.38 -21.7,-7.09 -5.89,-4.75 -9.99,-11.35 -12.23,-19.85 H 35.21 C 32.53,-18.27 28.17,-11.62 22.1,-6.95 16.03,-2.34 8.67,0 0,0 m 73.72,-41.9 c 0,-3.871 -0.22,-7.66 -0.74,-11.36 H -34.94 c 1.63,-9.719 5.5,-17.16 11.66,-22.36 6.12,-5.19 13.91,-7.78 23.28,-7.78 6.61,0 12.55,1.45 17.83,4.35 5.33,2.949 9.42,6.96 12.32,12.15 h 40.5 C 65.5,-82.479 56.56,-94.85 43.84,-104 31.12,-113.16 16.51,-117.729 0,-117.729 c -13.86,0 -26.4,3.299 -37.71,9.849 -11.32,6.6 -20.21,15.63 -26.63,27.16 -6.47,11.53 -9.69,24.3 -9.69,38.29 0,14.08 3.22,26.89 9.6,38.42 6.43,11.531 15.27,20.56 26.59,27.07 11.3,6.56 23.89,9.81 37.84,9.81 14.26,0 27.07,-3.38 38.43,-10.12 11.35,-6.729 20.07,-15.8 26.14,-27.149 6.12,-11.311 9.15,-23.861 9.15,-37.5 z"
             style="fill:#ffffff;fill-opacity:1;fill-rule:nonzero;stroke:none"
             id="path36" /></g><g
           id="g38"
           transform="translate(955.6899,807.46)"><path
             d="m 0,0 c 7.35,-7.439 16.6,-11.18 27.77,-11.18 11.18,0 20.47,3.701 27.82,11.09 7.35,7.39 11,16.72 11,27.99 0,11.27 -3.65,20.6 -11,27.99 C 48.24,63.28 38.95,66.979 27.77,66.979 16.6,66.979 7.35,63.24 0,55.81 -7.35,48.37 -11.04,39.08 -11.04,27.899 -11.04,16.72 -7.35,7.43 0,0 m 31.03,103.2 c 14.09,0 26.81,-3.25 38.2,-9.72 11.4,-6.52 20.34,-15.49 26.76,-27.03 6.48,-11.53 9.69,-24.38 9.69,-38.55 0,-14.171 -3.21,-27.07 -9.69,-38.6 -6.42,-11.58 -15.36,-20.64 -26.76,-27.15 -11.39,-6.52 -24.11,-9.82 -38.2,-9.82 -14.48,0 -27.51,4 -39.21,12.021 V -94.85 H -46.74 V 99.2 h 25.4 l 6.56,-13.03 c 12.8,11.36 28.08,17.03 45.81,17.03"
             style="fill:#ffffff;fill-opacity:1;fill-rule:nonzero;stroke:none"
             id="path40" /></g><g
           id="g42"
           transform="translate(1150.8301,907.4502)"><path
             d="M 0,0 H 12.63 V -36.351 H -4.01 c -10.83,0 -18.57,-2.549 -23.24,-7.699 -4.71,-5.11 -7.04,-13.511 -7.04,-25.18 v -74.161 H -72.84 V -0.79 h 24.6 l 6.86,-17.521 C -31.61,-6.11 -17.79,0 0,0"
             style="fill:#ffffff;fill-opacity:1;fill-rule:nonzero;stroke:none"
             id="path44" /></g><path
           d="m 1181.03,906.66 h 38.56 v -142.6 h -38.56 z m 0,54.8 h 38.43 v -35.83 h -38.43 z"
           style="fill:#ffffff;fill-opacity:1;fill-rule:nonzero;stroke:none"
           id="path46" /><g
           id="g48"
           transform="translate(1329.4199,910.0098)"><path
             d="m 0,0 c 16.15,0 29,-5.37 38.55,-16.16 9.511,-10.779 14.31,-25.26 14.31,-43.39 v -86.4 H 14.3 v 80.19 c 0,21.35 -8.32,32 -24.909,32 -9.861,0 -17.651,-3.349 -23.37,-9.99 -5.721,-6.689 -8.581,-15.76 -8.581,-27.29 v -74.91 h -38.56 v 142.6 h 26.41 L -47.229,-21 c 5.5,6.521 12.37,11.66 20.599,15.41 C -18.439,-1.85 -9.55,0 0,0"
             style="fill:#ffffff;fill-opacity:1;fill-rule:nonzero;stroke:none"
             id="path50" /></g><g
           id="g52"
           transform="translate(1480.0996,798.3496)"><path
             d="m 0,0 h 17.511 v -34.29 h -27.33 c -15.62,0 -27.991,4.53 -37.061,13.601 -9.069,9.069 -13.599,21.519 -13.599,37.319 V 77.37 H -86.27 v 8.271 l 56.34,59.949 h 7.35 V 108.311 H 16.76 V 77.37 H -21.92 V 21.78 c 0,-6.95 1.891,-12.32 5.68,-16.11 C -12.46,1.891 -7.05,0 0,0"
             style="fill:#ffffff;fill-opacity:1;fill-rule:nonzero;stroke:none"
             id="path54" /></g><g
           id="g56"
           transform="translate(1569.29,760.0605)"><path
             d="m 0,0 c -17.87,0 -32.3,4.659 -43.26,13.989 -10.96,9.33 -16.46,21.66 -16.55,36.931 h 37.539 c 0.042,-6.08 2.292,-10.79 6.601,-14.04 4.36,-3.261 10.08,-4.891 17.21,-4.891 5.68,0 10.48,1.231 14.39,3.74 3.92,2.47 5.86,5.991 5.86,10.571 0,2.329 -0.66,4.349 -1.98,6.069 -1.32,1.721 -3.44,3.12 -6.25,4.311 -2.86,1.149 -5.63,2.069 -8.36,2.689 -2.78,0.66 -6.39,1.36 -10.88,2.151 -4,0.669 -7.44,1.28 -10.16,1.849 -2.77,0.57 -6.08,1.41 -10,2.51 -3.91,1.15 -7.21,2.33 -9.85,3.7 -2.69,1.32 -5.51,3.13 -8.45,5.32 -2.95,2.25 -5.33,4.71 -7.089,7.44 -1.761,2.69 -3.211,5.99 -4.401,9.86 -1.15,3.88 -1.72,8.1 -1.72,12.76 0,13.52 5.28,24.48 15.85,32.931 10.56,8.489 24.42,12.71 41.5,12.71 17.21,0 30.99,-4.351 41.42,-13.071 10.38,-8.759 15.62,-20.24 15.71,-34.5 H 20.51 c -0.09,5.59 -1.98,9.811 -5.72,12.63 -3.74,2.861 -9.019,4.271 -15.8,4.271 -5.94,0 -10.61,-1.281 -14,-3.741 -3.39,-2.509 -5.1,-5.81 -5.1,-9.95 0,-1.54 0.31,-2.95 0.83,-4.179 0.57,-1.231 1.54,-2.331 2.99,-3.21 1.42,-0.931 2.73,-1.681 4.01,-2.33 1.24,-0.67 3.13,-1.281 5.64,-1.941 2.55,-0.659 4.619,-1.1 6.2,-1.409 C 1.14,92.859 3.57,92.42 6.87,91.81 20.69,89.3 30.68,86.739 36.75,84.06 52.16,77.189 59.86,65.18 59.86,47.97 59.86,33.439 54.4,21.819 43.479,13.109 32.57,4.35 18.09,0 0,0"
             style="fill:#ffffff;fill-opacity:1;fill-rule:nonzero;stroke:none"
             id="path58" /></g><g
           id="g60"
           transform="translate(1363.1201,960.2305)"><path
             d="m 0,0 c 0,-6.94 -5.65,-12.591 -12.601,-12.591 -6.939,0 -12.589,5.651 -12.589,12.591 0,30.55 12.4,58.22 32.39,78.209 L 8,78.95 c 19.979,19.57 47.31,31.65 77.4,31.65 30.55,0 58.21,-12.391 78.22,-32.391 C 183.61,58.22 196.01,30.55 196.01,0 c 0,-6.94 -5.65,-12.591 -12.6,-12.591 -6.94,0 -12.59,5.651 -12.59,12.591 0,23.579 -9.58,44.95 -25.02,60.39 C 130.351,75.839 108.99,85.399 85.4,85.399 62.13,85.399 41.04,76.14 25.67,61.1 L 25.021,60.39 C 9.58,44.95 0,23.579 0,0 m -412.05,43.129 c 9.38,0 17.58,-5.109 21.95,-12.699 h 45.82 l -127.25,127.259 -219.57,0.011 -30.13,-30.131 c -2.29,-2.279 -5.44,-3.69 -8.91,-3.69 h -53.36 c -4.37,-7.599 -12.57,-12.719 -21.97,-12.719 -13.95,0 -25.3,11.34 -25.3,25.299 0,13.98 11.35,25.321 25.3,25.321 9.39,0 17.58,-5.12 21.95,-12.7 h 48.16 l 30.07,30.069 c 2.76,2.75 6.46,3.951 10.06,3.631 l 228.98,-0.02 c 3.45,0 6.59,-1.41 8.87,-3.671 L -304.95,26.75 c 4.91,-4.91 4.91,-12.91 0,-17.82 -2.46,-2.46 -5.68,-3.691 -8.91,-3.691 h -76.22 c -4.38,-7.599 -12.57,-12.719 -21.97,-12.719 -13.97,0 -25.3,11.339 -25.3,25.299 0,13.981 11.33,25.311 25.3,25.311 z m 699.8,-0.31 c 7.58,-4.37 12.7,-12.559 12.7,-21.95 0,-13.949 -11.33,-25.3 -25.32,-25.3 -13.96,0 -25.29,11.351 -25.29,25.3 0,9.401 5.11,17.59 12.71,21.97 v 53.14 l -61.651,61.65 H 9.489 l -56.559,-56.56 c -2.29,-2.279 -5.451,-3.69 -8.91,-3.69 h -111.23 c -6.95,0 -12.601,5.65 -12.601,12.591 0,6.949 5.651,12.599 12.601,12.599 H -61.2 l 35.05,35.06 h -71.04 c -2.01,-0.509 -4.121,-0.489 -6.13,0 h -224.571 c -4.37,-7.6 -12.559,-12.719 -21.96,-12.719 -13.949,0 -25.299,11.33 -25.299,25.299 0,13.971 11.35,25.311 25.299,25.311 9.38,0 17.58,-5.11 21.951,-12.701 h 71.86 l -36.57,36.591 H -533.4 c -4.371,-7.6 -12.58,-12.73 -21.98,-12.73 -9.391,0 -17.58,5.13 -21.95,12.73 h -240.75 l -78.74,-78.741 c -2.451,-2.449 -5.68,-3.69 -8.91,-3.69 h -73.51 c -4.33,-7.759 -12.63,-13.029 -22.15,-13.029 -13.97,0 -25.3,11.34 -25.3,25.3 0,13.969 11.33,25.319 25.3,25.319 9.25,0 17.369,-4.969 21.77,-12.389 h 68.67 l 78.74,78.739 c 2.29,2.27 5.43,3.681 8.91,3.681 h 246 c 4.37,7.589 12.56,12.699 21.92,12.699 9.38,0 17.58,-5.11 21.95,-12.699 h 245.98 c 3.229,-0.04 6.46,-1.281 8.91,-3.75 l 58.019,-58.031 h 89.46 L -237.521,289.27 H -695.42 c -4.38,-7.601 -12.57,-12.721 -21.97,-12.721 -13.97,0 -25.3,11.33 -25.3,25.301 0,13.98 11.33,25.31 25.3,25.31 9.38,0 17.58,-5.111 21.95,-12.701 h 463.14 c 3.23,-0.009 6.459,-1.23 8.909,-3.689 L -95.42,182.819 H 4.27 206.12 c 3.23,-0.009 6.46,-1.23 8.91,-3.69 l 69.03,-69.02 c 2.27,-2.29 3.69,-5.449 3.69,-8.909 z M -82.36,70.35 c 6.94,0 12.589,-5.65 12.589,-12.59 0,-6.95 -5.649,-12.6 -12.589,-12.6 h -149.911 c -4.369,-7.6 -12.569,-12.721 -21.969,-12.721 -13.95,0 -25.29,11.351 -25.29,25.301 0,13.98 11.34,25.33 25.29,25.33 9.389,0 17.58,-5.12 21.96,-12.72 z"
             style="fill:#ffffff;fill-opacity:1;fill-rule:evenodd;stroke:none"
             id="path62" /></g></g></g></g></svg>
